<svg width="42" height="32" viewBox="0 0 42 32" fill="none" xmlns="http://www.w3.org/2000/svg">
<g id="Group 4132">
<path id="Vector" d="M26 28.0002V12.209" stroke="#FF5F05" stroke-width="6.5" stroke-linecap="round" stroke-linejoin="round"/>
<path id="Vector_2" d="M32.3343 17.7711C35.8327 17.7711 38.6687 14.9892 38.6687 11.5574C38.6687 8.12571 35.8327 5.34375 32.3343 5.34375C28.836 5.34375 26 8.12571 26 11.5574C26 14.9892 28.836 17.7711 32.3343 17.7711Z" stroke="#FF5F05" stroke-width="6.5" stroke-miterlimit="10" stroke-linecap="round"/>
<path id="Vector_3" d="M14.1308 15.694H21.3359V22.0656H14.1308C12.7255 22.0656 11.5859 20.6381 11.5859 18.8775C11.5859 17.117 12.7255 15.6895 14.1308 15.6895V15.694Z" fill="#FF5F05"/>
<path id="Vector_4" d="M8.03917 8.80078H14.365V14.6384H8.03917C6.58231 14.6384 5.40234 13.4767 5.40234 12.0518V11.3916C5.40234 9.96245 6.58657 8.80496 8.03917 8.80496V8.80078Z" fill="#FF5F05"/>
<path id="Vector_5" d="M14.8359 18.8103L17.2811 5.0625" stroke="#FF5F05" stroke-width="6.5" stroke-miterlimit="10" stroke-linecap="round"/>
<path id="Vector_6" d="M4 22.8589L7.20417 4" stroke="#FF5F05" stroke-width="6.5" stroke-miterlimit="10" stroke-linecap="round"/>
</g>
</svg>
